<?xml version="1.0" encoding="UTF-8" standalone="no"?>
<svg
   xmlns:dc="http://purl.org/dc/elements/1.1/"
   xmlns:cc="http://creativecommons.org/ns#"
   xmlns:rdf="http://www.w3.org/1999/02/22-rdf-syntax-ns#"
   xmlns:svg="http://www.w3.org/2000/svg"
   xmlns="http://www.w3.org/2000/svg"
   xmlns:sodipodi="http://sodipodi.sourceforge.net/DTD/sodipodi-0.dtd"
   xmlns:inkscape="http://www.inkscape.org/namespaces/inkscape"
   width="330pt"
   height="330pt"
   viewBox="0 0 330 330.00001"
   version="1.2"
   id="svg63"
   sodipodi:docname="logo.svg"
   inkscape:version="1.0.2 (e86c870, 2021-01-15)">
  <metadata
     id="metadata69">
    <rdf:RDF>
      <cc:Work
         rdf:about="">
        <dc:format>image/svg+xml</dc:format>
        <dc:type
           rdf:resource="http://purl.org/dc/dcmitype/StillImage" />
        <dc:title></dc:title>
      </cc:Work>
    </rdf:RDF>
  </metadata>
  <defs
     id="defs67" />
  <sodipodi:namedview
     pagecolor="#ffffff"
     bordercolor="#666666"
     borderopacity="1"
     objecttolerance="10"
     gridtolerance="10"
     guidetolerance="10"
     inkscape:pageopacity="0"
     inkscape:pageshadow="2"
     inkscape:window-width="1985"
     inkscape:window-height="1281"
     id="namedview65"
     showgrid="false"
     fit-margin-top="0"
     fit-margin-left="0"
     fit-margin-right="0"
     fit-margin-bottom="0"
     inkscape:zoom="0.62925"
     inkscape:cx="200.54252"
     inkscape:cy="251.1979"
     inkscape:window-x="0"
     inkscape:window-y="0"
     inkscape:window-maximized="0"
     inkscape:current-layer="svg63" />
  <g
     id="g222"
     transform="translate(-344.4369,-282.47033)">
    <g
       id="surface1">
      <path
         style="fill:#e6e6e6;fill-opacity:1;fill-rule:nonzero;stroke:none"
         d="m 567.125,579.55859 c 0,4.05469 -28.60938,7.33985 -63.89844,7.33985 -35.28906,0 -63.89844,-3.28516 -63.89844,-7.33985 0,-4.05468 28.60938,-7.33984 63.89844,-7.33984 35.28906,0 63.89844,3.28516 63.89844,7.33984"
         id="path26" />
      <path
         style="fill:#303030;fill-opacity:1;fill-rule:nonzero;stroke:none"
         d="m 472.30078,543.54297 c -0.12891,-0.0234 -0.25781,-0.0547 -0.39062,-0.082 -0.4961,-0.10157 -0.98829,-0.22266 -1.47266,-0.35938 -0.13672,-0.0391 -0.27734,-0.0781 -0.41406,-0.11719 -0.57032,-0.17968 -1.13282,-0.3789 -1.6836,-0.60937 -0.10547,-0.043 -0.20703,-0.0937 -0.30859,-0.14063 -0.45703,-0.19921 -0.90625,-0.41796 -1.34766,-0.64843 -0.15234,-0.082 -0.30078,-0.16016 -0.45312,-0.2461 -0.45703,-0.25781 -0.90235,-0.53125 -1.33594,-0.82422 -0.0781,-0.0547 -0.16406,-0.0977 -0.23828,-0.15234 -0.51563,-0.35547 -1.01563,-0.73828 -1.5,-1.14062 -0.22266,-0.19141 -0.42969,-0.39454 -0.64844,-0.59375 -0.27734,-0.25 -0.55469,-0.49219 -0.8164,-0.75782 -0.54688,-0.55078 -1.06641,-1.13281 -1.55469,-1.73828 -0.10547,-0.13672 -0.20313,-0.28125 -0.30469,-0.41797 -0.375,-0.49218 -0.73437,-1 -1.07031,-1.52343 -0.14453,-0.22657 -0.28125,-0.46094 -0.41797,-0.69141 -0.27734,-0.46875 -0.53906,-0.94922 -0.78516,-1.44141 -0.12109,-0.24609 -0.24218,-0.49218 -0.35547,-0.74609 -0.2539,-0.55078 -0.48046,-1.12109 -0.6875,-1.69922 -0.0703,-0.19141 -0.15234,-0.37891 -0.21484,-0.57031 -0.25781,-0.77344 -0.47656,-1.56641 -0.65234,-2.3711 -0.043,-0.19921 -0.0664,-0.40234 -0.10547,-0.60546 -0.11719,-0.59375 -0.21485,-1.19141 -0.28516,-1.80079 -0.043,-0.38671 -0.0703,-0.78125 -0.0937,-1.17187 -0.0195,-0.29688 -0.043,-0.59375 -0.0508,-0.89453 -0.0195,-0.66797 -0.0195,-1.33594 0.0234,-2.01172 l 3.61328,-61.90234 -3.12891,-1.90235 c -0.5039,-0.30469 -0.99218,-0.625 -1.47265,-0.95703 -0.56641,-0.39453 -1.10547,-0.8125 -1.63282,-1.23828 -0.14062,-0.11719 -0.27734,-0.23438 -0.41406,-0.35156 -0.47265,-0.39844 -0.92578,-0.8086 -1.36328,-1.23438 -0.13281,-0.1289 -0.27344,-0.25781 -0.40234,-0.39062 -0.15625,-0.15625 -0.3086,-0.32032 -0.46094,-0.48047 -0.21875,-0.23438 -0.43359,-0.46875 -0.64063,-0.70703 -0.14843,-0.16797 -0.29687,-0.34375 -0.4375,-0.51953 -0.20312,-0.24219 -0.40625,-0.49219 -0.59765,-0.74219 -0.1211,-0.16016 -0.24219,-0.32031 -0.35938,-0.48047 -0.19531,-0.26563 -0.38281,-0.53906 -0.57031,-0.8125 -0.10156,-0.15625 -0.21094,-0.3125 -0.3125,-0.46875 -0.19922,-0.3125 -0.39062,-0.63281 -0.57422,-0.95313 -0.0703,-0.12109 -0.14844,-0.24218 -0.21484,-0.36328 -0.2461,-0.44922 -0.48047,-0.89843 -0.69922,-1.35547 -0.043,-0.0937 -0.082,-0.1875 -0.125,-0.27734 -0.16797,-0.36719 -0.33203,-0.73828 -0.48047,-1.11328 -0.0664,-0.16406 -0.125,-0.32813 -0.18359,-0.49219 -0.11719,-0.30859 -0.23047,-0.62109 -0.33203,-0.93359 -0.0586,-0.1836 -0.11719,-0.36719 -0.17188,-0.55078 -0.0898,-0.30469 -0.17187,-0.60938 -0.25391,-0.91797 -0.0469,-0.1875 -0.0937,-0.3711 -0.13281,-0.5586 -0.0469,-0.19531 -0.082,-0.39843 -0.12109,-0.59765 -0.125,-0.62891 -0.22656,-1.26172 -0.29688,-1.89844 -0.0156,-0.10937 -0.0312,-0.21875 -0.043,-0.33203 -0.0586,-0.58594 -0.0937,-1.17188 -0.10156,-1.75781 -0.008,-0.53516 0.004,-1.06641 0.0352,-1.60157 0.0312,-0.5625 0.0898,-1.12109 0.16406,-1.67578 0.0195,-0.14843 0.0508,-0.28906 0.0742,-0.43359 0.0586,-0.39453 0.12891,-0.78906 0.21484,-1.17578 0.0352,-0.17969 0.0781,-0.35547 0.1211,-0.53125 0.0859,-0.36328 0.18359,-0.72266 0.28906,-1.07813 0.0469,-0.16406 0.0937,-0.33203 0.14453,-0.49609 0.13672,-0.41797 0.28516,-0.83594 0.44531,-1.24219 0.0352,-0.0937 0.0625,-0.18359 0.10157,-0.27344 0.20312,-0.5039 0.42578,-0.99609 0.66406,-1.48437 0.082,-0.17188 0.17969,-0.33594 0.26562,-0.50391 0.17188,-0.32422 0.34375,-0.64843 0.52735,-0.96484 0.15625,-0.26563 0.32422,-0.51953 0.49218,-0.77734 0.14844,-0.23438 0.29688,-0.47266 0.45313,-0.69922 0.36719,-0.52735 0.75,-1.04297 1.16406,-1.53907 0.51172,-0.62109 1.07031,-1.21093 1.64844,-1.78125 0.19531,-0.1914 0.38672,-0.3789 0.58203,-0.5625 0.14453,-0.13281 0.28906,-0.26562 0.43359,-0.39453 0.29688,-0.25781 0.60157,-0.51172 0.91016,-0.75781 0.12891,-0.10156 0.25,-0.20703 0.38281,-0.30469 0.4375,-0.33984 0.89063,-0.66797 1.35938,-0.98047 0.0664,-0.043 0.13672,-0.082 0.20312,-0.1289 0.40625,-0.26172 0.81641,-0.51953 1.24219,-0.76172 0.16406,-0.0937 0.33203,-0.18359 0.49609,-0.27344 0.34375,-0.1875 0.6875,-0.37109 1.04297,-0.54297 0.1836,-0.0898 0.3711,-0.17968 0.5586,-0.26953 0.36328,-0.16797 0.73437,-0.32812 1.10937,-0.48047 0.17188,-0.0703 0.34375,-0.14453 0.51953,-0.21093 0.54688,-0.21485 1.10157,-0.41407 1.67578,-0.59375 1.78516,-0.57422 3.65235,-0.95704 5.67969,-1.17188 1.67188,-0.20703 3.35156,-0.39062 5.03516,-0.5625 0.35937,0.004 0.71484,0 1.07812,0.004 0.81641,0.008 1.63282,0.0195 2.45313,0.0391 1.64062,0.0312 3.28515,0.0859 4.93359,0.15234 0.67578,0.0274 1.34766,0.0508 2.02344,0.082 0.0937,0.004 0.1875,0.008 0.28125,0.0117 2.31641,0.11719 4.63672,0.25 6.96875,0.42578 1.71484,0.13282 3.4375,0.28907 5.16406,0.45313 0.78906,0.0781 1.57813,0.15625 2.36719,0.23828 1.21094,0.12891 2.42578,0.26172 3.64062,0.40625 0.78516,0.0937 1.56641,0.18359 2.35547,0.28125 1.26563,0.16016 2.53516,0.33594 3.8086,0.51563 0.72656,0.10156 1.44922,0.19921 2.17578,0.30468 1.49219,0.21875 2.98828,0.46094 4.48437,0.70703 0.50782,0.082 1.01172,0.15625 1.51953,0.24219 2,0.33985 4.00391,0.69922 6.01172,1.08203 0.48828,0.0937 0.98047,0.19922 1.47266,0.29688 1.52344,0.29687 3.04687,0.60156 4.57812,0.92578 0.73438,0.15625 1.47266,0.32422 2.21094,0.48437 1.28906,0.28516 2.58203,0.57422 3.87891,0.875 0.80469,0.1875 1.60937,0.38282 2.41797,0.57813 1.67578,0.40234 3.34765,0.8125 5.02734,1.24609 0.69141,0.17969 1.36719,0.38672 2.03125,0.61328 0.27734,0.0937 0.54297,0.19532 0.81641,0.29688 0.41015,0.15234 0.82031,0.3125 1.22265,0.48047 0.0234,0.0117 0.0469,0.0195 0.0703,0.0312 0.26562,0.11328 0.52343,0.23047 0.78515,0.35156 0.38672,0.17969 0.76953,0.36328 1.14453,0.55859 0.28125,0.14454 0.5586,0.29688 0.83203,0.44922 0.35157,0.19922 0.69922,0.40625 1.03907,0.61719 0.28906,0.17578 0.57812,0.35938 0.85547,0.54688 0.3125,0.20703 0.61718,0.42578 0.91796,0.64453 0.3086,0.22656 0.61329,0.45703 0.91407,0.69531 0.26172,0.20703 0.51953,0.42578 0.76953,0.64453 0.36719,0.3125 0.72265,0.63672 1.07031,0.96484 0.21094,0.20313 0.42188,0.40625 0.625,0.61329 0.57813,0.59375 1.13281,1.20703 1.64844,1.84375 0.10156,0.125 0.20703,0.25 0.30469,0.375 0.34765,0.44531 0.67578,0.89843 0.98828,1.36328 0.0859,0.125 0.17187,0.25 0.2539,0.375 0.3125,0.47656 0.60547,0.96484 0.87891,1.46093 0.0937,0.16407 0.17969,0.33204 0.26953,0.5 0.21875,0.41407 0.42578,0.83594 0.62109,1.26563 0.0781,0.16797 0.16016,0.33984 0.23047,0.51172 0.23828,0.55859 0.46094,1.12109 0.65235,1.69531 0.0351,0.0898 0.0586,0.1875 0.0898,0.27734 0.12109,0.375 0.21875,0.75782 0.32031,1.13672 0.043,0.14844 0.0899,0.29297 0.12891,0.44532 0.0312,0.1289 0.0664,0.26171 0.0937,0.39453 0.0664,0.27343 0.10547,0.55468 0.15625,0.83203 0.0977,0.51172 0.18359,1.02734 0.24219,1.54687 0.0312,0.26172 0.0508,0.52344 0.0703,0.78516 0.008,0.11328 0.0234,0.23047 0.0273,0.34375 0.0195,0.26172 0.0391,0.52344 0.0469,0.78906 0.0156,0.5625 0.0117,1.125 -0.0156,1.69531 -0.004,0.0664 0,0.12891 0,0.19532 -0.0312,0.51562 -0.082,1.03125 -0.14843,1.53906 -0.0117,0.0898 -0.0312,0.17578 -0.043,0.26562 -0.0586,0.40235 -0.125,0.80469 -0.20703,1.20313 -0.0312,0.16406 -0.0742,0.32422 -0.10938,0.48437 -0.0742,0.31641 -0.14844,0.63282 -0.23437,0.94532 -0.0508,0.1875 -0.10938,0.375 -0.16407,0.55859 -0.0898,0.28516 -0.17578,0.56641 -0.27734,0.84766 -0.0664,0.20312 -0.14453,0.40234 -0.21875,0.59765 -0.10156,0.26563 -0.20703,0.52344 -0.31641,0.78125 -0.0898,0.21485 -0.1875,0.42969 -0.28515,0.64453 -0.11328,0.23829 -0.22657,0.47657 -0.34766,0.71094 -0.125,0.24219 -0.25391,0.48438 -0.38672,0.72656 -0.11719,0.21094 -0.23828,0.42188 -0.36328,0.62891 -0.17578,0.29688 -0.35937,0.58594 -0.55078,0.87891 -0.11719,0.17578 -0.23438,0.35547 -0.35547,0.53125 -0.36328,0.51562 -0.73828,1.02343 -1.14453,1.51172 -0.004,0.008 -0.0117,0.0117 -0.0156,0.0195 -0.52734,0.63672 -1.10546,1.24609 -1.70312,1.83593 -0.10156,0.0977 -0.19922,0.20313 -0.30469,0.30079 -0.46094,0.43359 -0.9375,0.85937 -1.4375,1.26562 -0.0664,0.0547 -0.13672,0.10156 -0.20312,0.15625 -0.44141,0.35156 -0.89844,0.6875 -1.36719,1.01172 -0.17188,0.11719 -0.34375,0.23047 -0.51563,0.34375 -0.39843,0.26562 -0.80859,0.51562 -1.22656,0.75781 -0.17578,0.10156 -0.34765,0.20703 -0.52344,0.30469 -0.58593,0.32031 -1.18359,0.63281 -1.80078,0.91406 0,0 -0.004,0 -0.004,0.004 -0.0703,0.0312 -0.14453,0.0625 -0.21875,0.0937 -0.0274,0.0117 -0.0508,0.0234 -0.0781,0.0351 -0.082,0.0352 -0.16797,0.0742 -0.24609,0.10938 -0.008,0 -0.0117,0.004 -0.0156,0.004 -0.004,0.004 -0.008,0.004 -0.0117,0.008 l -3.33203,1.39844 -3.61328,61.91015 c -0.0391,0.69141 -0.11719,1.3711 -0.21484,2.04297 -0.0195,0.12891 -0.043,0.25781 -0.0625,0.38672 -0.0273,0.14844 -0.0586,0.29687 -0.0859,0.44531 -0.0781,0.42969 -0.16016,0.85938 -0.26172,1.27735 -0.0117,0.0586 -0.0234,0.11718 -0.0391,0.17187 -0.0625,0.25 -0.14063,0.49609 -0.21094,0.74609 -0.11328,0.40625 -0.23047,0.8125 -0.36328,1.20704 -0.0977,0.28125 -0.20703,0.54687 -0.31641,0.82031 -0.13671,0.35937 -0.27734,0.71875 -0.43359,1.0664 -0.0117,0.0234 -0.0195,0.043 -0.0312,0.0664 -0.11719,0.26172 -0.24609,0.51563 -0.375,0.76953 -0.16797,0.34375 -0.33984,0.6836 -0.53125,1.01563 -0.14453,0.26172 -0.30078,0.51172 -0.45703,0.76562 -0.19922,0.32031 -0.39844,0.63672 -0.60938,0.94141 -0.125,0.18359 -0.26171,0.35937 -0.39062,0.53906 -0.082,0.10938 -0.16406,0.21875 -0.24609,0.32422 -0.1875,0.24609 -0.37891,0.48828 -0.57422,0.72266 -0.0781,0.0937 -0.16016,0.18359 -0.23828,0.27734 -0.32813,0.375 -0.66407,0.73828 -1.01563,1.09375 -0.0273,0.0273 -0.0547,0.0586 -0.0859,0.0859 -0.19531,0.19922 -0.39453,0.39062 -0.60156,0.58203 -0.0312,0.0273 -0.0664,0.0547 -0.0977,0.0859 -0.25,0.22265 -0.5039,0.4414 -0.76171,0.65234 -0.17969,0.14844 -0.35938,0.29297 -0.54297,0.43359 -0.0977,0.0781 -0.19922,0.14844 -0.30078,0.22266 -0.23829,0.17969 -0.48438,0.34766 -0.73047,0.51562 -0.15625,0.10157 -0.3086,0.20704 -0.46485,0.30469 -0.14062,0.0859 -0.28125,0.17188 -0.42187,0.25781 -0.20703,0.1211 -0.41797,0.23829 -0.625,0.35157 l -53.09766,-4.03516 c -0.66406,-0.0508 -1.3125,-0.14062 -1.95703,-0.25781 M 597.38281,443.09766 c -0.0117,-0.45313 -0.0508,-0.90235 -0.0781,-1.35157 -0.0274,-0.42968 -0.0312,-0.86328 -0.0742,-1.28906 -0.0195,-0.21094 -0.0547,-0.41797 -0.0781,-0.62891 -0.0234,-0.19531 -0.0508,-0.39453 -0.0781,-0.59375 -0.1211,-0.89062 -0.26172,-1.77734 -0.44922,-2.64843 -0.008,-0.0391 -0.0195,-0.0781 -0.0273,-0.11328 -0.0234,-0.10938 -0.0547,-0.21094 -0.0781,-0.31641 -0.1875,-0.82813 -0.41016,-1.64453 -0.65625,-2.45313 -0.0625,-0.22265 -0.12891,-0.4375 -0.19922,-0.65625 -0.28906,-0.88671 -0.60156,-1.75781 -0.95312,-2.61718 -0.043,-0.10547 -0.0899,-0.20313 -0.13672,-0.30469 -0.32422,-0.77734 -0.6836,-1.53516 -1.0625,-2.28516 -0.10547,-0.20312 -0.20703,-0.41015 -0.3125,-0.60937 -0.4336,-0.82031 -0.89063,-1.62891 -1.38672,-2.41797 -0.0586,-0.0937 -0.12891,-0.1875 -0.1875,-0.28516 -0.45703,-0.70703 -0.9375,-1.39453 -1.4375,-2.07031 -0.13672,-0.18359 -0.27344,-0.37109 -0.41406,-0.55469 -0.10938,-0.14453 -0.21485,-0.29687 -0.32813,-0.4375 -0.47656,-0.60156 -0.97265,-1.1914 -1.48828,-1.76172 -0.0391,-0.0469 -0.082,-0.0859 -0.12109,-0.13281 -0.45703,-0.5039 -0.92188,-1 -1.41016,-1.48047 -0.10937,-0.10937 -0.23437,-0.20703 -0.34375,-0.3164 -0.5,-0.48438 -1.02734,-0.94922 -1.55859,-1.41016 -0.25391,-0.22266 -0.48438,-0.46484 -0.7461,-0.67578 -0.0859,-0.0703 -0.17578,-0.12891 -0.26172,-0.19922 -0.40625,-0.32812 -0.82812,-0.63281 -1.25,-0.94531 -0.34765,-0.26563 -0.68359,-0.54297 -1.04296,-0.79688 -0.10157,-0.0664 -0.20704,-0.125 -0.3086,-0.19531 -0.35156,-0.23828 -0.71875,-0.46094 -1.07812,-0.69141 -0.37891,-0.23828 -0.7461,-0.49609 -1.13282,-0.72656 -0.15234,-0.0898 -0.3164,-0.16406 -0.47265,-0.2539 -0.35156,-0.19922 -0.71094,-0.38672 -1.06641,-0.57422 -0.33203,-0.17578 -0.65234,-0.3711 -0.99219,-0.53516 -0.24218,-0.12109 -0.49218,-0.21875 -0.73828,-0.33203 -0.35937,-0.16797 -0.72265,-0.33203 -1.08984,-0.49219 -0.25391,-0.10937 -0.49609,-0.23047 -0.75,-0.33594 -0.36328,-0.14843 -0.74219,-0.26953 -1.10938,-0.40625 -0.35937,-0.13671 -0.71484,-0.27343 -1.07812,-0.39453 -0.16016,-0.0547 -0.3125,-0.12109 -0.47656,-0.17578 -0.78907,-0.25781 -1.58594,-0.49219 -2.39844,-0.70312 -1.01953,-0.26172 -2.03125,-0.51953 -3.04688,-0.77344 -0.71875,-0.17578 -1.43359,-0.33984 -2.14843,-0.51172 -0.83203,-0.19922 -1.66407,-0.40234 -2.49219,-0.59375 -1.35156,-0.31641 -2.70313,-0.61719 -4.04688,-0.91016 -0.75781,-0.16796 -1.51562,-0.33984 -2.27343,-0.5 -1.59766,-0.33593 -3.19532,-0.66015 -4.78907,-0.96875 -0.49609,-0.0976 -0.98828,-0.20312 -1.48437,-0.29687 -1.99609,-0.38281 -3.99219,-0.74219 -5.98047,-1.08203 -0.0859,-0.0156 -0.17187,-0.0274 -0.25391,-0.043 -0.53515,-0.0898 -1.0664,-0.16797 -1.59765,-0.25391 -1.54297,-0.2539 -3.08594,-0.5 -4.6211,-0.72656 -0.75781,-0.11328 -1.51171,-0.21484 -2.26953,-0.32031 -1.3125,-0.1836 -2.6289,-0.36328 -3.9414,-0.53125 -0.81641,-0.10156 -1.62891,-0.19531 -2.44141,-0.29297 -1.25781,-0.14844 -2.51562,-0.28906 -3.76562,-0.41797 -0.82422,-0.0859 -1.64454,-0.16797 -2.46485,-0.24609 -0.49219,-0.0469 -0.99219,-0.10547 -1.48437,-0.14844 -1.29297,-0.11719 -2.58203,-0.22656 -3.86719,-0.32422 -2.42578,-0.18359 -4.83984,-0.32422 -7.25,-0.44141 -0.44141,-0.0234 -0.88672,-0.0469 -1.33203,-0.0664 -2.31641,-0.10156 -4.625,-0.17578 -6.92578,-0.21875 -0.44532,-0.008 -0.88672,-0.0117 -1.33203,-0.0156 -0.79688,-0.0117 -1.59375,-0.0273 -2.39063,-0.0312 -1.05078,-0.004 -2.09766,0.0156 -3.14844,0.0234 -0.7539,0.008 -1.51172,0.008 -2.26562,0.0195 -2.40235,0.043 -4.79688,0.10938 -7.17969,0.21875 l -25.86328,1.17969 c 0.14844,-0.008 0.30078,-0.008 0.45312,-0.0156 -6.48437,0.28516 -12.89453,0.8125 -19.22265,1.59766 -2.63281,0.27734 -5.22266,0.81641 -7.67969,1.59375 -14.50781,4.57422 -24.44141,17.0625 -25.30078,31.78906 -0.71094,12.23438 4.98437,23.9961 15.05078,31.49219 L 418,520.50781 c -1.10156,18.88672 12.21484,35.32813 29.68359,36.65625 l 68.35157,5.19531 c 1.28125,0.0977 2.55078,0.10157 3.80078,0.0352 -0.0703,0.004 -0.14063,0.0156 -0.21094,0.0195 l 25.86328,-1.17969 c 0.96484,-0.0469 1.91797,-0.14062 2.85938,-0.27734 0.3164,-0.043 0.62109,-0.12109 0.92968,-0.17578 0.6211,-0.11328 1.2461,-0.22266 1.85938,-0.37109 0.36328,-0.0899 0.71484,-0.20704 1.07422,-0.3125 0.54687,-0.15625 1.08984,-0.3086 1.625,-0.4961 0.375,-0.1289 0.74218,-0.28906 1.11328,-0.43359 0.5,-0.19922 1,-0.39453 1.48828,-0.6211 0.37109,-0.17187 0.73828,-0.36328 1.10156,-0.54687 0.46875,-0.24219 0.9336,-0.48047 1.39063,-0.74219 0.36328,-0.21094 0.71484,-0.43359 1.07031,-0.65625 0.4375,-0.28125 0.875,-0.55859 1.30078,-0.85937 0.34375,-0.2461 0.67969,-0.5 1.01953,-0.75782 0.41016,-0.3125 0.81641,-0.63671 1.21094,-0.97265 0.32812,-0.27735 0.64844,-0.5586 0.96484,-0.84766 0.1875,-0.17578 0.39453,-0.33594 0.58203,-0.51562 0.27735,-0.26563 0.54297,-0.54688 0.8086,-0.82813 0.10937,-0.10547 0.21875,-0.21484 0.32422,-0.32422 0.48047,-0.51562 0.95703,-1.03906 1.41015,-1.58593 0.0703,-0.0899 0.13282,-0.1836 0.20313,-0.26954 0.32812,-0.41015 0.63672,-0.83593 0.94922,-1.25781 0.22265,-0.30469 0.46484,-0.58594 0.67968,-0.89844 0.0625,-0.0898 0.11329,-0.1914 0.17969,-0.28515 0.19922,-0.30078 0.38672,-0.61328 0.58203,-0.92188 0.21875,-0.34765 0.45313,-0.6875 0.66016,-1.04687 0.0937,-0.16406 0.17187,-0.33594 0.26562,-0.5 0.15625,-0.28516 0.30469,-0.57422 0.45704,-0.86328 0.14062,-0.26953 0.29687,-0.53125 0.42968,-0.80469 0.14844,-0.30859 0.27735,-0.62891 0.41797,-0.94141 0.11719,-0.26172 0.23828,-0.51562 0.34766,-0.77734 0.0586,-0.14063 0.13281,-0.27734 0.1875,-0.42188 0.28515,-0.70312 0.55078,-1.41796 0.79297,-2.14453 0.004,-0.004 0.004,-0.0117 0.008,-0.0156 0.008,-0.0273 0.0156,-0.0547 0.0234,-0.082 0.22656,-0.6875 0.43359,-1.37891 0.62109,-2.08594 0.0469,-0.17578 0.082,-0.35938 0.125,-0.53516 0.0664,-0.26172 0.125,-0.53125 0.18359,-0.79687 0.0664,-0.3086 0.15235,-0.60938 0.21094,-0.91797 0.0781,-0.40625 0.13672,-0.82031 0.19922,-1.23047 0.043,-0.25781 0.0898,-0.51172 0.12891,-0.77344 0.0156,-0.11718 0.043,-0.23437 0.0586,-0.35937 0.10938,-0.83594 0.1875,-1.6836 0.24219,-2.54297 0.004,-0.0312 0.004,-0.0625 0.008,-0.0977 l 3.17578,-54.39453 c 0.69922,-0.38281 1.38281,-0.78906 2.05078,-1.21094 0.22266,-0.14062 0.4375,-0.29687 0.65625,-0.4414 0.4375,-0.28906 0.875,-0.58203 1.30078,-0.89063 0.25,-0.17968 0.49219,-0.3789 0.73829,-0.5664 0.375,-0.28907 0.75,-0.57422 1.11328,-0.875 0.2539,-0.21094 0.49609,-0.4336 0.74218,-0.64844 0.33594,-0.29688 0.67579,-0.58984 1,-0.89844 0.0703,-0.0664 0.14454,-0.1289 0.21485,-0.19531 0.23437,-0.22266 0.45312,-0.46094 0.68359,-0.69531 0.19922,-0.20313 0.40625,-0.40235 0.59766,-0.60938 0.32422,-0.34375 0.6289,-0.69531 0.9375,-1.04687 0.16015,-0.1875 0.32812,-0.36719 0.48437,-0.5586 0.0274,-0.0273 0.0547,-0.0547 0.0781,-0.0859 0.0664,-0.082 0.125,-0.16797 0.1914,-0.25 0.51563,-0.64063 1.00782,-1.29688 1.48047,-1.96485 0.0781,-0.11328 0.16797,-0.21484 0.24219,-0.32422 0.082,-0.11718 0.15234,-0.24218 0.23047,-0.35937 0.32812,-0.49219 0.64062,-0.99219 0.94141,-1.4961 0.0976,-0.16015 0.20703,-0.3125 0.29687,-0.47265 0.043,-0.0703 0.0742,-0.14063 0.11328,-0.20703 0.26172,-0.46485 0.50781,-0.9375 0.7461,-1.41016 0.0976,-0.19141 0.21093,-0.37891 0.30468,-0.57031 0.0195,-0.0352 0.0312,-0.0742 0.0508,-0.10938 0.21094,-0.44531 0.40625,-0.89453 0.60157,-1.34765 0.0937,-0.22657 0.20703,-0.44141 0.29687,-0.66797 0.008,-0.0234 0.0156,-0.043 0.0234,-0.0664 0.14844,-0.37109 0.27734,-0.74609 0.41797,-1.125 0.10937,-0.30469 0.23047,-0.60156 0.33594,-0.91406 0.008,-0.0156 0.0117,-0.0391 0.0156,-0.0547 0.10156,-0.30859 0.1875,-0.62109 0.27734,-0.92969 0.11329,-0.37109 0.23438,-0.73828 0.33594,-1.11718 0.004,-0.0234 0.008,-0.0508 0.0156,-0.0742 0.082,-0.32031 0.14843,-0.64453 0.22265,-0.96485 0.0859,-0.36718 0.17969,-0.73437 0.25782,-1.10937 0.004,-0.0312 0.008,-0.0625 0.0117,-0.0937 0.0742,-0.36719 0.125,-0.74219 0.1836,-1.11328 0.0547,-0.33985 0.12109,-0.67578 0.16797,-1.01953 0.004,-0.0312 0.004,-0.0625 0.008,-0.0937 0.0664,-0.51172 0.10547,-1.03125 0.14844,-1.54688 0.0195,-0.24219 0.0547,-0.47656 0.0664,-0.71875 l 0.008,-0.0898 c 0.0469,-0.84766 0.0664,-1.69141 0.0547,-2.53125 0,-0.12891 -0.0156,-0.25391 -0.0195,-0.38281"
         id="path28" />
      <path
         style="fill:#f5c768;fill-opacity:1;fill-rule:nonzero;stroke:none"
         d="m 489,412.36328 c 16.69141,1.26563 33.76172,4.14453 51.11719,8.63281 12.30859,3.1875 20.76562,13.83985 20.09375,25.33985 -0.48828,8.39453 -5.89844,15.94922 -14.25,19.76562 -0.1875,0.0859 -0.38282,0.16797 -0.57032,0.25 l -3.33203,1.40235 -3.61328,61.91015 c -0.71094,12.16016 -10.44922,21.36719 -21.69922,20.51172 l -68.35156,-5.19531 c -11.25,-0.85547 -19.83203,-11.45703 -19.12109,-23.61328 l 3.61328,-61.90235 -3.12891,-1.90234 c -8.13281,-4.9375 -12.86719,-13.39844 -12.35937,-22.08594 0.55859,-9.57422 7.32812,-17.78125 17.28125,-20.91797 1.78906,-0.57422 3.65625,-0.95703 5.68359,-1.17187 15.75,-1.94531 32,-2.28906 48.63672,-1.02344"
         id="path30" />
      <path
         style="fill:#303030;fill-opacity:1;fill-rule:nonzero;stroke:none"
         d="m 474.71875,576.63672 h -3.72656 c -2.8711,0 -5.21875,-2.34766 -5.21875,-5.21485 v -15.97265 c 0,-2.8711 2.34765,-5.21875 5.21875,-5.21875 h 3.72656 c 2.86719,0 5.21484,2.34765 5.21484,5.21875 v 15.97265 c 0,2.86719 -2.34765,5.21485 -5.21484,5.21485"
         id="path32" />
      <path
         style="fill:#303030;fill-opacity:1;fill-rule:nonzero;stroke:none"
         d="m 507.64453,579.55859 h -3.73047 c -2.86719,0 -5.21484,-2.34765 -5.21484,-5.21484 v -15.97266 c 0,-2.87109 2.34765,-5.21875 5.21484,-5.21875 h 3.73047 c 2.86719,0 5.21875,2.34766 5.21875,5.21875 v 15.97266 c 0,2.86719 -2.35156,5.21484 -5.21875,5.21484"
         id="path34" />
      <path
         style="fill:#303030;fill-opacity:1;fill-rule:nonzero;stroke:none"
         d="m 464.51953,496.35937 c 0,3.44532 -2.79297,6.23829 -6.24219,6.23829 -3.44531,0 -6.23828,-2.79297 -6.23828,-6.23829 0,-3.44921 2.79297,-6.24218 6.23828,-6.24218 3.44922,0 6.24219,2.79297 6.24219,6.24218"
         id="path36" />
      <path
         style="fill:#303030;fill-opacity:1;fill-rule:nonzero;stroke:none"
         d="m 513.53906,499.98828 c 0,3.44531 -2.79687,6.23828 -6.24219,6.23828 -3.44531,0 -6.23828,-2.79297 -6.23828,-6.23828 0,-3.44531 2.79297,-6.24219 6.23828,-6.24219 3.44532,0 6.24219,2.79688 6.24219,6.24219"
         id="path38" />
      <path
         style="fill:#303030;fill-opacity:1;fill-rule:nonzero;stroke:none"
         d="m 483.26562,505.52344 c -0.35937,0 -0.72265,-0.0195 -1.08203,-0.0547 -3.17968,-0.33594 -6.10547,-2.13672 -7.83203,-4.82422 -0.60547,-0.94531 -0.33203,-2.20703 0.61328,-2.81641 0.94922,-0.60156 2.20703,-0.33203 2.81641,0.61719 1.04687,1.63281 2.89453,2.76953 4.82422,2.97266 1.9414,0.20312 3.98047,-0.52735 5.33984,-1.91016 0.78906,-0.79687 2.07813,-0.80469 2.87891,-0.0117 0.80078,0.78907 0.80859,2.07813 0.0156,2.87891 -1.98828,2.01172 -4.75781,3.14844 -7.57422,3.14844"
         id="path40" />
      <path
         style="fill:#303030;fill-opacity:1;fill-rule:nonzero;stroke:none"
         d="m 413.44531,552.58594 c -2.49609,0 -4.58594,-1.94532 -4.73828,-4.46485 -0.75,-12.47656 3.5,-24.92578 11.65234,-34.15234 1.73829,-1.96484 4.74219,-2.15234 6.70704,-0.41016 1.96484,1.73438 2.14843,4.73828 0.41015,6.70313 -6.40625,7.25 -9.8789,17.44922 -9.28515,27.28906 0.15625,2.62109 -1.83985,4.87109 -4.45704,5.02734 -0.0976,0.004 -0.19531,0.008 -0.28906,0.008"
         id="path42" />
      <path
         style="fill:#ffcc42;fill-opacity:1;fill-rule:nonzero;stroke:none"
         d="m 503.29297,326.96094 c -3.21094,-0.36328 -6.34375,1.05859 -8.07031,4.24609 -1.75,3.22656 -1.13672,7.00781 1.47656,9.61719 0.39453,0.39062 0.5664,0.73828 0.47265,1.3164 -0.58593,3.54297 -1.32031,7.0586 -2.25781,10.52735 -0.94531,3.48828 -2.01562,6.92187 -3.4414,10.22656 -1.4336,3.33594 -2.92579,6.69531 -5.04297,9.66406 -1.60938,2.25 -3.19922,3.48828 -6.34766,2.375 -0.64844,-0.22656 -1.19141,-0.77343 -1.75781,-1.20312 -1.57031,-1.19141 -2.72266,-2.80469 -3.84375,-4.40235 -1.14063,-1.625 -2.41016,-3.16796 -3.44922,-4.86328 -0.87891,-1.42968 -1.69531,-2.90234 -2.53906,-4.35547 -0.96485,-1.66406 -1.91797,-3.33593 -2.875,-5 0.23047,-0.23437 0.41015,-0.41015 0.58203,-0.59375 2.24219,-2.36718 2.98437,-5.13281 1.96484,-8.24218 -1.03906,-3.17969 -3.32031,-5.07422 -6.625,-5.52344 -3.26953,-0.44922 -5.92969,0.78906 -7.80078,3.50391 -3.23437,4.6914 -0.62891,11.16406 4.96875,12.4414 0.46484,0.10547 0.87109,0.14453 1.00391,0.78125 0.62109,3.02344 1.03906,6.08985 1.1914,9.17578 0.23828,4.88282 -0.082,10.1875 -1.48828,14.89063 -1.03515,3.44922 -2.44922,6.74219 -5.66406,8.82812 -2.39844,1.55469 -5.03906,1.95313 -7.83203,1.57422 -0.21094,-0.0273 -0.42188,-0.0586 -0.63281,-0.0937 -3.58594,-0.60156 -6.57813,-2.25 -9.86719,-3.66406 -1.62891,-0.69922 -3.16797,-1.70703 -4.69141,-2.63672 -1.58984,-0.97266 -3.15234,-2 -4.60547,-3.17187 -1.30078,-1.04297 -2.54687,-2.15625 -3.79297,-3.26563 -0.32421,-0.28906 -3.75781,-3.07812 -3.70312,-3.19141 2.30469,-4.78515 2.03125,-8.16796 -0.91797,-10.95703 -2.55859,-2.41797 -6.39453,-2.89453 -9.53125,-1.17968 -2.92969,1.59765 -4.64844,5.125 -4.07031,8.34765 0.74609,4.15625 3.34375,6.25391 8.66406,6.95703 0.14844,0.0195 0.50781,2.88282 0.5625,3.17969 0.20313,1.16406 0.41016,2.32422 0.61328,3.48828 0.40235,2.26172 0.90625,4.52735 1.19531,6.8086 0.1875,1.48046 0.60547,2.9414 0.73047,4.4414 0.15625,1.89063 0.35157,3.83985 0.082,5.69922 -0.3789,2.63672 -2.73437,3.77344 -4.97265,4.10156 -2.85547,0.42188 -5.62891,-0.20703 -8.40235,-0.80468 -2.87109,-0.61719 -5.6914,-1.44532 -8.47265,-2.39063 -4.25,-1.44531 -8.23828,-3.16406 -12.20703,-5.28906 -3.62891,-1.94531 -7.25391,-3.90235 -10.8711,-5.875 -0.23828,-0.12891 -0.42578,-0.58985 -0.42187,-0.89453 0.0976,-6.80469 -7.05078,-10.26172 -12.02735,-7.39063 -3.44531,1.98828 -5.125,6.11328 -3.7539,9.86719 1.375,3.75781 5.39062,6.15234 9.17969,5.14453 1.60546,-0.42969 2.64843,-0.043 3.94921,0.76953 11.1211,6.98828 21.94922,14.38672 32.17969,22.62891 4.39063,3.53906 8.67578,7.20703 13.00781,10.82422 0.32032,0.27343 0.70704,0.48828 0.45704,1.08593 -0.83204,2.01954 -0.23438,3.80079 1.10937,5.36719 1.72266,2.00781 4.05078,2.44922 6.49609,2.11719 2.37891,-0.32031 4.75391,-0.79297 7.07032,-1.42578 6.9414,-1.89453 13.8789,-3.8125 20.76953,-5.87891 12.20703,-3.66015 24.04297,-8.2539 35.10937,-14.66406 6.26953,-3.63672 12.14844,-7.81641 17.48828,-12.72656 0.41797,-0.37891 0.875,-0.98047 0.88282,-1.48828 0.0351,-2.26172 -0.67188,-4.25782 -2.73438,-5.48438 -0.50781,-0.30078 -0.61719,-0.57812 -0.57812,-1.11719 0.21093,-2.68359 0.41015,-5.37109 0.5625,-8.05859 0.55859,-9.84375 1.21875,-19.67578 2.70312,-29.42969 0.89453,-5.88672 1.96875,-11.75 2.89453,-17.63281 0.16407,-1.03906 0.48828,-1.71484 1.44532,-2.28516 2.86328,-1.71093 4.20312,-5.20703 3.46093,-8.58984 -0.71875,-3.28906 -3.51562,-5.83594 -6.98437,-6.22656"
         id="path44" />
      <path
         style="fill:#303030;fill-opacity:1;fill-rule:nonzero;stroke:none"
         d="m 502.30469,331.65625 c -0.96485,0 -2.1211,0.35937 -2.90625,1.8125 -0.73438,1.35547 -0.48828,2.84766 0.65625,3.99219 0.92968,0.92578 1.4375,1.89843 1.68359,2.8164 0.54297,-0.89453 1.37109,-1.82031 2.64453,-2.57812 1.05469,-0.62891 1.57031,-2.06641 1.25781,-3.4961 -0.29296,-1.32812 -1.47656,-2.36328 -2.88281,-2.52343 -0.14062,-0.0156 -0.29687,-0.0234 -0.45312,-0.0234 m -42.05469,13.75 c -1.09375,0 -1.85938,0.46875 -2.60156,1.54297 -0.83985,1.22265 -0.57422,2.41015 -0.33985,3.00781 0.19922,0.50781 0.83594,1.73828 2.45703,2.10547 0.625,0.13672 1.16797,0.33203 1.63672,0.56641 l 1.35157,-1.38282 c 1.25781,-1.32812 1.26953,-2.35937 0.89843,-3.49218 -0.47656,-1.44922 -1.24609,-2.09375 -2.7539,-2.30079 -0.23047,-0.0312 -0.44532,-0.0469 -0.64844,-0.0469 m -48.09375,22.10937 c -0.57813,0 -1.16406,0.14454 -1.70313,0.4375 -1.14062,0.625 -1.89062,2.1211 -1.67187,3.33985 0.24609,1.36328 0.45703,2.53906 4.60937,3.08984 0.23829,0.0312 0.46875,0.0742 0.67969,0.12891 0.0781,-0.21485 0.16797,-0.42969 0.27735,-0.65625 1.83203,-3.80078 0.91015,-4.67188 0.0976,-5.4375 -0.6289,-0.59766 -1.44922,-0.90235 -2.28906,-0.90235 m 10.75391,10.45704 c -0.004,0.004 -0.004,0.004 -0.004,0.008 0,-0.004 0,-0.004 0.004,-0.008 m -49.61719,10.30468 c 0.004,0 0.008,0.004 0.0117,0.004 -0.004,0 -0.008,-0.004 -0.0117,-0.004 m -10.8711,-0.375 c -0.52343,0 -1.03515,0.125 -1.46875,0.375 -1.51953,0.87891 -2.21875,2.60938 -1.66796,4.1211 0.55468,1.51172 2.1875,2.53125 3.49609,2.18359 1.41797,-0.375 2.67187,-0.40625 3.77734,-0.23437 -0.49218,-0.9336 -0.71484,-1.96094 -0.70312,-2.85547 0.0234,-1.7461 -0.88672,-2.64844 -1.65235,-3.09766 -0.55468,-0.32812 -1.17968,-0.49219 -1.78125,-0.49219 m 55.56641,48.39844 c 0.043,0.082 0.13281,0.23438 0.32422,0.45703 0.23437,0.27344 0.625,0.72656 2.25,0.50391 2.23437,-0.30469 4.41016,-0.74219 6.46094,-1.30078 6.26562,-1.71094 13.54687,-3.71485 20.65234,-5.84375 13.32031,-3.9961 24.47266,-8.65235 34.09375,-14.22657 5.96094,-3.45703 11.14063,-7.17187 15.79688,-11.33593 -0.0664,-0.0859 -0.14063,-0.13282 -0.20313,-0.17188 -2.04687,-1.21484 -3.07031,-3.1914 -2.88672,-5.5664 0.20703,-2.65625 0.40235,-5.30469 0.55469,-7.96094 0.53906,-9.51953 1.19531,-19.66797 2.75,-29.875 0.12891,-0.84766 0.26172,-1.69531 0.39453,-2.54297 -0.73828,2.33984 -1.49609,4.38672 -2.33984,6.33984 -1.58594,3.6875 -3.20703,7.26953 -5.54297,10.53907 -1.16016,1.63281 -4.69922,6.59375 -11.79297,4.09765 -1.26953,-0.44922 -2.16797,-1.18359 -2.76172,-1.67187 -0.0937,-0.0781 -0.19141,-0.15625 -0.28516,-0.23047 -2.20703,-1.67188 -3.67968,-3.76953 -4.85937,-5.45703 -0.38672,-0.54688 -0.78516,-1.08203 -1.18359,-1.6211 -0.8125,-1.08984 -1.64844,-2.21875 -2.42579,-3.48437 -0.5039,-0.82031 -0.98828,-1.65235 -1.46484,-2.48438 0.0508,0.65625 0.0937,1.3086 0.125,1.95313 0.30859,6.19531 -0.26172,11.74219 -1.67969,16.48437 -1.19531,3.99219 -3.03906,8.47657 -7.6289,11.45313 -3.21485,2.08594 -6.9375,2.85937 -11.0586,2.29687 -0.25781,-0.0351 -0.51172,-0.0742 -0.76172,-0.11328 -3.42578,-0.57422 -6.22265,-1.84375 -8.92968,-3.07422 -0.67188,-0.30468 -1.34766,-0.61328 -2.04297,-0.91015 -1.70313,-0.73047 -3.2461,-1.6875 -4.60547,-2.52735 l -0.69141,-0.42578 c -2.09765,-1.28125 -3.67187,-2.36719 -5.10156,-3.51953 -1.38672,-1.11719 -2.69141,-2.27734 -3.94922,-3.39844 -0.10156,-0.0859 -0.35156,-0.29297 -0.66797,-0.55468 -0.15625,-0.13282 -0.3125,-0.26172 -0.46875,-0.38672 l 0.56641,3.1875 c 0.125,0.71875 0.26562,1.43359 0.40234,2.15234 0.30078,1.57422 0.61328,3.20313 0.82813,4.88672 0.0664,0.53906 0.17578,1.07812 0.28125,1.62109 0.17578,0.89844 0.375,1.91797 0.46875,3.02735 l 0.0351,0.41015 c 0.16016,1.92188 0.34375,4.10157 0.0156,6.35938 -0.62109,4.28515 -4.0625,7.39844 -8.98047,8.12109 -3.60547,0.53516 -6.90234,-0.17187 -9.8125,-0.79687 l -0.28125,-0.0625 c -2.82031,-0.60547 -5.76562,-1.4375 -9.00391,-2.53907 -3.10156,-1.05468 -6.05078,-2.24218 -8.92187,-3.58984 7.125,4.85156 13.48047,9.54297 19.45703,14.35938 3.15625,2.54296 6.29297,5.17968 9.32422,7.73046 1.24609,1.05079 2.49609,2.10157 3.74609,3.14454 2.50391,2.01171 2.57032,4.6914 1.8086,6.53906 -0.004,0.004 -0.004,0.008 -0.004,0.008 m 1.78125,10.51953 c -4.35547,0 -7.08594,-2.03125 -8.66797,-3.875 -1.90625,-2.22656 -2.79687,-4.72656 -2.61719,-7.25 -0.72265,-0.60156 -1.4414,-1.20703 -2.16406,-1.8125 -2.99219,-2.51953 -6.08984,-5.125 -9.16797,-7.60547 -9.1289,-7.35547 -19.20703,-14.44531 -31.72656,-22.30859 -0.12891,-0.0781 -0.22266,-0.13672 -0.29687,-0.17578 -6.11719,1.51953 -12.53516,-2.03125 -14.76563,-8.12891 -2.14453,-5.85937 0.3125,-12.42578 5.83984,-15.61328 3.90625,-2.25 8.81641,-2.19531 12.8125,0.15234 3.3711,1.97657 5.58204,5.28516 6.17579,9.10547 2.98437,1.61719 5.96875,3.22657 8.95312,4.82813 3.67188,1.96875 7.42969,3.59765 11.49219,4.98047 2.88672,0.98047 5.48437,1.71484 7.9414,2.24218 l 0.28516,0.0625 c 2.42188,0.52344 4.51563,0.96875 6.42578,0.69141 0.49219,-0.0742 0.81641,-0.19531 0.98828,-0.28125 0.13282,-1.15234 0.0156,-2.54297 -0.10547,-4.00781 l -0.0351,-0.42578 c -0.0508,-0.58594 -0.1836,-1.26563 -0.32422,-1.98828 -0.14453,-0.75 -0.28906,-1.4961 -0.38281,-2.2461 -0.17578,-1.38672 -0.44532,-2.79687 -0.73438,-4.28906 -0.14453,-0.76563 -0.29297,-1.53125 -0.42578,-2.29297 l -0.61719,-3.48828 c 0,-0.008 -0.004,-0.0156 -0.004,-0.0273 -5.19532,-1.55469 -8.29297,-4.9375 -9.21875,-10.09375 -0.94532,-5.26954 1.71484,-10.76172 6.47265,-13.35938 4.94922,-2.70312 11.00782,-1.94141 15.06641,1.89844 3.70312,3.49609 4.80078,7.86719 3.28125,13.02344 0.13281,0.10546 0.25,0.20312 0.34375,0.28125 0.44922,0.375 0.79297,0.66015 0.89062,0.75 1.25391,1.11328 2.41407,2.14843 3.61719,3.11328 1.09766,0.88672 2.36328,1.7539 4.10156,2.82031 l 0.73047,0.44922 c 1.1836,0.73047 2.30469,1.42187 3.35547,1.875 0.75781,0.32422 1.4961,0.66015 2.23047,0.99219 2.33984,1.0664 4.36328,1.98437 6.54688,2.34765 l 0.5,0.0781 c 1.84765,0.24609 3.3125,-0.0234 4.60156,-0.85547 1.64062,-1.06641 2.67578,-2.80469 3.69531,-6.21094 1.09375,-3.65234 1.54297,-8.25 1.29297,-13.28906 -0.0977,-2.02344 -0.33203,-4.125 -0.69141,-6.26563 -3.1914,-1.35547 -5.73047,-3.9375 -7.00781,-7.21484 -1.53906,-3.94531 -1.02344,-8.37109 1.37109,-11.84766 2.92579,-4.24609 7.3125,-6.20312 12.35547,-5.51562 5.07813,0.69531 8.90235,3.88281 10.4961,8.7539 1.24218,3.79688 0.77343,7.54688 -1.3086,10.79297 0.41016,0.71485 0.82032,1.42578 1.23047,2.13672 l 0.75,1.30078 c 0.56641,0.99219 1.13672,1.98438 1.73047,2.95703 0.55469,0.90235 1.23438,1.81641 1.95313,2.78125 0.44921,0.60938 0.90234,1.21485 1.33593,1.83594 1.05469,1.5 1.8711,2.6211 2.82422,3.34375 0.19141,0.14453 0.38281,0.30078 0.57031,0.45313 0.0586,0.0469 0.11719,0.0976 0.17188,0.14453 0.0117,0.004 0.0195,0.004 0.0273,0.008 0.12891,-0.13672 0.32422,-0.37109 0.59766,-0.75 1.79297,-2.51172 3.12109,-5.46484 4.55078,-8.78516 1.15625,-2.68359 2.14453,-5.64062 3.21484,-9.58984 0.72266,-2.66797 1.35547,-5.52734 1.89063,-8.51562 -3.12109,-4.01954 -3.62891,-9.44141 -1.17578,-13.96875 2.5664,-4.73047 7.46484,-7.3086 12.78125,-6.69922 5.47265,0.61328 9.92969,4.60547 11.09375,9.92968 1.1289,5.15625 -0.84766,10.35547 -4.94141,13.21485 -0.40625,2.53125 -0.82031,4.98828 -1.23828,7.4414 -0.53906,3.19141 -1.07812,6.38282 -1.56641,9.58204 -1.48828,9.79687 -2.1289,19.6914 -2.65625,28.98046 -0.11718,2.08594 -0.26562,4.16797 -0.42187,6.2461 2.11328,2.01953 3.22656,4.86328 3.17969,8.21484 -0.0352,2.38281 -1.53125,4.10547 -2.41797,4.92188 -5.39453,4.95312 -11.38672,9.3164 -18.32031,13.33593 -10.27344,5.95313 -22.08985,10.89454 -36.12891,15.10547 -7.21094,2.16407 -14.55859,4.1875 -20.87891,5.91016 -2.45312,0.66797 -5.03906,1.19141 -7.68359,1.55078 -0.73047,0.10156 -1.42188,0.14453 -2.07422,0.14453"
         id="path46" />
      <path
         style="fill:#303030;fill-opacity:1;fill-rule:nonzero;stroke:none"
         d="m 576.46875,515.64844 c -2.10938,0 -4.03516,-1.41407 -4.59375,-3.55078 -0.66016,-2.53907 0.85937,-5.13282 3.39844,-5.79688 21.97265,-5.73047 39.1875,-26.32812 40.92968,-48.96875 0.20313,-2.61719 2.49219,-4.60547 5.10157,-4.37109 2.61718,0.19922 4.57422,2.48437 4.37109,5.10156 -2.04297,26.55469 -22.23047,50.71094 -48.00391,57.42969 -0.40234,0.10547 -0.80468,0.15625 -1.20312,0.15625"
         id="path48" />
      <path
         style="fill:#303030;fill-opacity:1;fill-rule:nonzero;stroke:none"
         d="m 625.13672,461.54297 c -1.67188,-2.88672 -5.20313,-3.82422 -8.10547,-2.15235 -2.87109,1.65235 -3.85938,5.24219 -2.22656,8.10938 1.64843,2.89453 5.37109,3.88281 8.23828,2.1875 2.83984,-1.67969 3.76172,-5.26563 2.09375,-8.14453 m 0.9414,-6.23438 c 1.9961,-4.93359 4.07032,-10.0625 6.11329,-15.12109 -3.44922,-0.95313 -6.78907,-1.87891 -10.2461,-2.83594 -0.82812,5.4375 -1.66406,10.92969 -2.45703,16.15235 2.25781,0.61718 4.3125,1.17968 6.58984,1.80468 m 24.29297,-15.48047 c 0.28125,-1.16015 0.57032,-2.34765 0.85157,-3.51562 -0.19922,-0.125 -0.30079,-0.20703 -0.41407,-0.26172 -6.60547,-3.11719 -13.20312,-6.24219 -19.8164,-9.33984 -0.46094,-0.21485 -1.00391,-0.3086 -1.52344,-0.35547 -6.96094,-0.67188 -13.92188,-1.32813 -20.88672,-1.98438 -0.33594,-0.0312 -0.67187,-0.0234 -1.05078,-0.0351 -0.37109,1.23828 -0.72266,2.40234 -1.03906,3.46484 14.66015,4.01563 29.20312,8.00391 43.8789,12.02734 m 8.03125,-115.1289 c -0.39843,0.37109 -0.57422,0.50781 -0.71484,0.66797 -4.62109,5.1875 -9.25,10.36718 -13.84375,15.57422 -0.38281,0.43359 -0.64453,1.04687 -0.77344,1.61718 -5.85156,25.85938 -11.68359,51.72266 -17.51562,77.58594 -0.0703,0.32031 -0.0899,0.65625 -0.16407,1.19922 4.45313,-0.29297 8.39844,1.00391 12.08594,3.25391 0.17188,-0.4336 0.2461,-0.59375 0.30078,-0.76172 8.23438,-25.38672 16.46875,-50.77344 24.67188,-76.16797 0.1914,-0.58985 0.17578,-1.3086 0.0625,-1.92578 -0.89063,-4.70703 -1.83203,-9.40625 -2.75391,-14.10547 -0.4375,-2.23047 -0.87109,-4.45703 -1.35547,-6.9375 m 3.84766,-5.71485 c 0.39844,2.27735 0.75391,4.5625 1.19922,6.83204 1.26953,6.42578 2.55469,12.85156 3.875,19.26953 0.27344,1.33203 0.20703,2.5664 -0.21485,3.87109 -8.24218,25.39063 -16.45312,50.78906 -24.67187,76.1875 -0.14844,0.45703 -0.29297,0.91016 -0.46094,1.44141 4.06641,1.93359 8.07813,3.83984 12.08985,5.75 2.42968,1.15625 2.68359,1.70703 2.01562,4.34375 -0.53906,2.13281 -1.0625,4.27343 -1.62109,6.40625 -0.50782,1.94922 -1.58203,2.57031 -3.54688,2.04297 -4.21094,-1.14063 -8.41406,-2.30079 -12.62109,-3.45313 -0.41797,-0.11328 -0.84375,-0.20703 -1.35547,-0.33594 -1.60938,3.95703 -3.19531,7.86328 -4.78125,11.76953 -0.33594,0.81641 -0.64063,1.64454 -1,2.44922 -0.99219,2.24219 -1.59375,4.28516 -0.79297,6.97657 1.44922,4.89453 -1.70312,10.24609 -6.33984,11.97265 -5.16407,1.92188 -10.74219,-0.0234 -13.37891,-4.66797 -2.60937,-4.60156 -1.42578,-10.32031 2.8125,-13.78515 0.40625,-0.33203 0.87109,-0.82032 0.94922,-1.28907 0.98828,-6.21875 1.91016,-12.44921 2.87109,-18.8125 -0.46093,-0.14062 -0.90625,-0.28906 -1.35156,-0.41015 -4.16406,-1.14844 -8.32812,-2.28125 -12.48828,-3.42969 -2.12891,-0.58984 -2.69922,-1.60547 -2.08203,-3.73047 0.66015,-2.28515 1.33984,-4.5664 2.01953,-6.84375 0.52734,-1.76172 1.26172,-2.28125 3.10156,-2.12109 4.16797,0.36328 8.33203,0.76172 12.4961,1.14062 0.47656,0.043 0.95703,0.0664 1.5039,0.10157 1.02344,-4.50782 2.03906,-8.96875 3.04688,-13.4336 5.01562,-22.16797 10.01562,-44.33984 15.07422,-66.5 0.22265,-0.97265 0.76953,-1.97265 1.43359,-2.72265 5.60156,-6.31641 11.26562,-12.57422 16.90234,-18.85938 0.3711,-0.41406 0.66016,-0.89453 0.98828,-1.34766 0.90235,-0.51171 1.80079,-1.02343 2.75782,-1.57031 0.51953,0.91797 1.04687,1.83985 1.57031,2.75781"
         id="path50" />
      <path
         style="fill:#303030;fill-opacity:1;fill-rule:nonzero;stroke:none"
         d="m 629.49609,418.09375 c 2.03125,0.26953 4.03516,0.82422 6.03125,1.67969 l 0.48828,-1.50391 c 7.7461,-23.87891 15.48829,-47.75781 23.20704,-71.64844 -0.0156,0.0469 -0.0117,-0.0703 -0.0469,-0.24609 -0.66797,-3.52734 -1.36328,-7.05078 -2.05469,-10.57031 l -0.76172,-3.85157 c -3.32812,3.73438 -6.65234,7.47266 -9.96093,11.22657 0.0351,-0.0469 0.004,0.0351 -0.0156,0.1289 -5.64453,24.92578 -11.26562,49.85547 -16.88672,74.78516 m -4.6289,11.22656 8.88672,2.4336 c -1.40235,-0.65625 -2.80079,-1.3125 -4.19922,-1.96875 0.0195,0.008 -0.0859,-0.0195 -0.41407,-0.0547 -1.42578,-0.13672 -2.84765,-0.27344 -4.27343,-0.41016 m -1.57032,21.71094 0.76954,0.20703 3.55468,-8.79297 -2.89453,-0.80078 z m -3.23437,10.92578 c -0.44531,0 -0.90234,0.12109 -1.33984,0.375 -1.25,0.71875 -1.67579,2.25 -0.96875,3.48828 0.34375,0.60156 0.90625,1.03516 1.58593,1.21485 0.67578,0.17968 1.37891,0.082 1.97657,-0.26563 1.24218,-0.73828 1.62109,-2.25 0.88281,-3.52734 -0.48438,-0.83203 -1.28125,-1.28516 -2.13672,-1.28516 m -0.0391,16.67188 c -5.01953,0 -9.76172,-2.59375 -12.32813,-7.11719 -3.37109,-5.9336 -1.91015,-13.45703 3.46485,-17.96485 0.75,-4.73828 1.46484,-9.48828 2.1914,-14.30468 l 0.125,-0.85547 -10.94531,-3.00391 c -0.73438,-0.20312 -2.96094,-0.82031 -4.12891,-2.90234 -1.16406,-2.08594 -0.51953,-4.3125 -0.30859,-5.04297 0.66797,-2.29688 1.34375,-4.58594 2.03125,-6.875 0.98828,-3.29688 3.22266,-4.82813 6.64453,-4.52344 2.75,0.23828 5.49609,0.49219 8.24609,0.7461 l 2.80079,0.25781 4.91406,-21.69922 c 4.17578,-18.45703 8.35156,-36.91797 12.55859,-55.37109 0.33985,-1.48438 1.14063,-3.02344 2.20313,-4.22266 3.89453,-4.38672 7.8164,-8.75 11.73828,-13.11328 l 5.17578,-5.75781 c 0.15234,-0.17188 0.27734,-0.36719 0.40625,-0.55469 0.12109,-0.17969 0.24219,-0.35547 0.37109,-0.52735 l 0.42578,-0.58593 6.33985,-3.60938 3.53906,6.21875 0.47266,2.73047 c 0.25781,1.53906 0.51953,3.07813 0.82031,4.60938 1.26562,6.41796 2.54687,12.83203 3.86719,19.24218 0.39453,1.91407 0.28906,3.7461 -0.3125,5.60157 -6.86719,21.16406 -13.71875,42.33203 -20.56641,63.49609 l -3.65234,11.29687 9.40625,4.47657 c 3.91015,1.85937 4.91797,4.01172 3.84765,8.23828 l -0.55859,2.22656 c -0.35156,1.40234 -0.70313,2.80469 -1.06641,4.20313 -0.49218,1.8789 -1.4375,3.23437 -2.80859,4.02734 -1.37109,0.79687 -3.02734,0.94141 -4.91016,0.43359 -2.72656,-0.73828 -5.44922,-1.48437 -8.17187,-2.23047 l -2.89844,-0.79296 -3.96484,9.77343 c -0.23438,0.59375 -0.47266,1.19141 -0.73047,1.77735 -0.82031,1.85547 -1.125,3.02343 -0.64844,4.64453 1.91406,6.44922 -1.85547,13.67578 -8.40625,16.11328 -1.71094,0.63672 -3.46484,0.94141 -5.18359,0.94141"
         id="path52" />
      <path
         style="fill:#cceeff;fill-opacity:1;fill-rule:nonzero;stroke:none"
         d="m 658.40234,324.69922 c 0.48438,2.48047 0.91797,4.70703 1.35547,6.9375 0.92188,4.69922 1.86328,9.39844 2.75,14.10547 0.1211,0.62109 0.13281,1.33593 -0.0547,1.92578 -8.20703,25.39453 -16.44531,50.78125 -24.67578,76.16797 -0.0547,0.16797 -0.1289,0.32812 -0.30078,0.76172 -3.68359,-2.25 -7.63281,-3.54688 -12.08594,-3.25391 0.0742,-0.54297 0.0937,-0.87891 0.16407,-1.19922 5.83203,-25.86328 11.66406,-51.72656 17.51953,-77.58594 0.1289,-0.57031 0.39062,-1.18359 0.76953,-1.61718 4.59375,-5.20704 9.22266,-10.38672 13.84375,-15.57422 0.14453,-0.16016 0.31641,-0.29688 0.71484,-0.66797"
         id="path54" />
      <path
         style="fill:#ffcc42;fill-opacity:1;fill-rule:nonzero;stroke:none"
         d="m 650.37109,439.82812 c -14.67968,-4.02343 -29.22265,-8.01171 -43.8789,-12.02734 0.3164,-1.0625 0.66797,-2.22656 1.03906,-3.46484 0.37891,0.0117 0.71875,0.004 1.05469,0.0351 6.96093,0.65625 13.92187,1.3125 20.88281,1.98047 0.51562,0.0508 1.0625,0.14453 1.52344,0.35938 6.61328,3.09765 13.21093,6.22265 19.8164,9.33984 0.11328,0.0547 0.21485,0.13672 0.41407,0.26172 -0.28125,1.16797 -0.57032,2.35547 -0.85157,3.51562"
         id="path56" />
      <path
         style="fill:#ffcc42;fill-opacity:1;fill-rule:nonzero;stroke:none"
         d="m 626.08203,455.30859 c -2.28125,-0.625 -4.33594,-1.1875 -6.59375,-1.80468 0.79297,-5.21875 1.62891,-10.71485 2.45703,-16.15235 3.45703,0.95703 6.79688,1.88281 10.2461,2.83985 -2.04688,5.05468 -4.11719,10.18359 -6.10938,15.11718"
         id="path58" />
      <path
         style="fill:#ffcc42;fill-opacity:1;fill-rule:nonzero;stroke:none"
         d="m 625.13672,461.54297 c 1.66797,2.8789 0.74609,6.46484 -2.09375,8.14453 -2.86719,1.69531 -6.58985,0.70703 -8.23828,-2.1875 -1.63282,-2.86719 -0.64453,-6.45703 2.22656,-8.10938 2.90234,-1.67187 6.43359,-0.73437 8.10547,2.15235"
         id="path60" />
    </g>
  </g>
</svg>
